<svg width="648" height="648" viewBox="0 0 648 648" fill="none" xmlns="http://www.w3.org/2000/svg">
<g style="mix-blend-mode:multiply">
<path opacity="0.5" d="M348.031 547.902C332.504 557.743 312.665 557.629 297.252 547.61L269.005 529.247C261.941 524.655 253.811 521.961 245.402 521.428L211.779 519.294C193.433 518.129 177.45 506.376 170.87 489.211L158.811 457.752C155.795 449.884 150.801 442.927 144.312 437.552L118.364 416.063C104.206 404.337 98.1841 385.433 102.95 367.679L111.686 335.14C113.87 327.002 113.919 318.439 111.828 310.276L103.468 277.639C98.906 259.831 105.145 240.998 119.437 229.436L145.63 208.246C152.18 202.946 157.254 196.047 160.36 188.214L172.78 156.896C179.556 139.808 195.674 128.239 214.032 127.285L247.678 125.538C256.092 125.101 264.252 122.501 271.369 117.99L299.825 99.9535C315.352 90.1119 335.191 90.2259 350.604 100.245L378.851 118.608C385.915 123.201 394.045 125.894 402.454 126.427L436.077 128.561C454.423 129.726 470.407 141.479 476.986 158.644L489.045 190.103C492.061 197.971 497.055 204.928 503.545 210.303L529.492 231.793C543.65 243.518 549.672 262.422 544.906 280.176L536.171 312.715C533.986 320.853 533.937 329.417 536.028 337.579L544.388 370.216C548.95 388.024 542.711 406.857 528.419 418.419L502.227 439.609C495.676 444.909 490.602 451.808 487.496 459.641L475.076 490.959C468.3 508.048 452.182 519.617 433.824 520.57L400.179 522.317C391.764 522.754 383.604 525.354 376.487 529.865L348.031 547.902Z" stroke="#FF7272" stroke-width="2"/>
<path opacity="0.5" d="M291.512 543.005C273.999 548.593 254.835 543.458 242.462 529.862L220.611 505.849C214.94 499.617 207.757 494.953 199.757 492.307L168.933 482.111C151.479 476.338 138.994 460.92 136.976 442.648L133.412 410.377C132.487 402.002 129.418 394.007 124.501 387.164L105.556 360.797C94.8296 345.868 93.7913 326.055 102.899 310.087L118.984 281.884C123.158 274.565 125.375 266.293 125.419 257.867L125.591 225.4C125.687 207.017 136.493 190.378 153.247 182.813L182.837 169.451C190.517 165.983 197.172 160.594 202.161 153.803L221.383 127.637C232.266 112.822 250.788 105.713 268.79 109.44L300.582 116.022C308.834 117.731 317.386 117.283 325.413 114.721L356.344 104.851C373.857 99.2628 393.02 104.398 405.393 117.994L427.245 142.007C432.916 148.239 440.098 152.903 448.098 155.549L478.923 165.745C496.376 171.518 508.861 186.936 510.879 205.208L514.443 237.479C515.368 245.854 518.437 253.849 523.354 260.692L542.299 287.059C553.026 301.988 554.064 321.8 544.957 337.769L528.872 365.972C524.697 373.291 522.481 381.563 522.436 389.989L522.265 422.456C522.168 440.839 511.362 457.477 494.608 465.043L465.018 478.405C457.339 481.873 450.683 487.262 445.695 494.053L426.473 520.218C415.589 535.033 397.067 542.143 379.066 538.416L347.273 531.833C339.022 530.125 330.47 530.573 322.442 533.135L291.512 543.005Z" stroke="#28A6ED" stroke-width="2"/>
<path opacity="0.5" d="M237.045 527.635C218.687 528.602 201.451 518.778 192.928 502.49L177.876 473.723C173.97 466.257 168.204 459.925 161.136 455.337L133.902 437.662C118.482 427.654 110.312 409.575 112.991 391.388L117.722 359.267C118.95 350.931 118.008 342.419 114.986 334.554L103.342 304.246C96.7495 287.086 100.767 267.657 113.624 254.518L136.332 231.313C142.225 225.291 146.466 217.851 148.644 209.711L157.039 178.348C161.792 160.59 176.462 147.233 194.586 144.161L226.597 138.735C234.904 137.327 242.709 133.8 249.255 128.496L274.481 108.057C288.765 96.4837 308.484 94.3004 324.953 102.468L354.039 116.894C361.588 120.638 369.974 122.372 378.389 121.929L410.811 120.22C429.168 119.253 446.405 129.078 454.928 145.366L469.98 174.133C473.886 181.599 479.652 187.931 486.72 192.518L513.954 210.194C529.374 220.202 537.544 238.281 534.865 256.468L530.133 288.588C528.905 296.924 529.848 305.436 532.87 313.302L544.513 343.61C551.106 360.77 547.089 380.199 534.232 393.337L511.524 416.542C505.63 422.565 501.39 430.005 499.211 438.144L490.817 469.508C486.064 487.266 471.394 500.623 453.269 503.695L421.259 509.121C412.951 510.529 405.147 514.055 398.6 519.36L373.374 539.799C359.091 551.372 339.372 553.555 322.903 545.387L293.817 530.962C286.268 527.218 277.881 525.484 269.467 525.927L237.045 527.635Z" stroke="#37B177" stroke-width="2"/>
<path opacity="0.5" d="M265.659 537.587C247.605 541.05 229.189 533.67 218.523 518.697L199.686 492.254C194.797 485.391 188.221 479.904 180.593 476.325L151.202 462.532C134.56 454.722 123.999 437.927 124.171 419.544L124.474 387.079C124.553 378.653 122.458 370.349 118.391 362.97L102.72 334.535C93.8471 318.435 95.1751 298.64 106.119 283.869L125.448 257.782C130.464 251.012 133.649 243.062 134.697 234.702L138.732 202.486C141.017 184.246 153.727 169.012 171.263 163.495L202.233 153.751C210.271 151.222 217.521 146.664 223.282 140.515L245.483 116.824C258.053 103.411 277.29 98.5565 294.719 104.4L325.502 114.722C333.491 117.4 342.036 117.974 350.311 116.386L382.197 110.269C400.251 106.806 418.667 114.186 429.333 129.158L448.17 155.602C453.059 162.465 459.635 167.951 467.262 171.531L496.654 185.324C513.296 193.134 523.857 209.929 523.685 228.311L523.381 260.777C523.302 269.203 525.398 277.506 529.465 284.886L545.136 313.321C554.008 329.421 552.68 349.216 541.737 363.987L522.408 390.073C517.392 396.844 514.206 404.793 513.159 413.154L509.123 445.369C506.838 463.61 494.129 478.844 476.593 484.361L445.622 494.105C437.585 496.633 430.335 501.192 424.573 507.34L402.373 531.031C389.802 544.445 370.566 549.299 353.136 543.455L322.353 533.134C314.364 530.455 305.82 529.882 297.544 531.47L265.659 537.587Z" stroke="#FF922D" stroke-width="2"/>
</g>
</svg>
